<?xml version="1.0" encoding="iso-8859-1"?>
<!-- Generator: Adobe Illustrator 19.0.0, SVG Export Plug-In . SVG Version: 6.00 Build 0)  -->
<svg version="1.1" id="Layer_1" xmlns="http://www.w3.org/2000/svg" xmlns:xlink="http://www.w3.org/1999/xlink" x="0px" y="0px"
	 viewBox="0 0 512 512" style="enable-background:new 0 0 512 512;" xml:space="preserve">
<circle style="fill:#324A5E;" cx="256" cy="256" r="256"/>
<path style="fill:#2B3B4E;" d="M510.376,284.815L365.011,139.45l-108.285,21.583l-115.884,4.486l35.323,35.323l-37.376,19.373
	l55.236,55.236l-12.438,12.441l93.077,125.285l79.367,79.367C438.294,457.581,499.834,378.914,510.376,284.815z"/>
<path style="fill:#FFD15D;" d="M352.108,190.923h-41.041c-1.838-7.38-4.73-14.348-8.576-20.687h49.617
	c9.997,0,18.101-8.104,18.101-18.101s-8.104-18.101-18.101-18.101H152.997c-9.997,0-18.101,8.104-18.101,18.101
	s8.104,18.101,18.101,18.101h85.333c14.853,0,27.776,8.395,34.29,20.687H152.997c-9.997,0-18.101,8.104-18.101,18.101
	c0,9.997,8.104,18.101,18.101,18.101H272.62c-6.515,12.291-19.437,20.687-34.29,20.687h-85.333c-7.321,0-13.921,4.411-16.724,11.173
	c-2.801,6.765-1.253,14.55,3.924,19.727l142.222,142.222c3.536,3.534,8.166,5.301,12.8,5.301c4.632,0,9.264-1.767,12.8-5.301
	c7.07-7.07,7.07-18.53,0-25.6L196.698,284.013h41.632c35.109,0,64.648-24.257,72.768-56.889h41.01
	c9.997,0,18.101-8.104,18.101-18.101C370.209,199.027,362.105,190.923,352.108,190.923z"/>
<g>
	<path style="fill:#F9B54C;" d="M282.419,420.935c3.536,3.534,8.166,5.301,12.8,5.301c4.632,0,9.264-1.767,12.8-5.301
		c7.07-7.07,7.07-18.53,0-25.6l-69.832-69.832v51.198L282.419,420.935z"/>
	<path style="fill:#F9B54C;" d="M352.108,190.923h-41.041c-1.838-7.38-4.73-14.348-8.576-20.687h49.617
		c9.997,0,18.101-8.104,18.101-18.101s-8.104-18.101-18.101-18.101H238.187v36.202h0.143c14.853,0,27.776,8.395,34.29,20.687
		h-34.433v36.202h34.433c-6.515,12.291-19.437,20.687-34.29,20.687h-0.143v36.202h0.143c35.109,0,64.648-24.257,72.768-56.889h41.01
		c9.997,0,18.101-8.104,18.101-18.101C370.209,199.027,362.105,190.923,352.108,190.923z"/>
</g>
<g>
</g>
<g>
</g>
<g>
</g>
<g>
</g>
<g>
</g>
<g>
</g>
<g>
</g>
<g>
</g>
<g>
</g>
<g>
</g>
<g>
</g>
<g>
</g>
<g>
</g>
<g>
</g>
<g>
</g>
</svg>
